<svg xmlns="http://www.w3.org/2000/svg" width="239.511" height="48" viewBox="0 0 239.511 48">
  <g id="Logo" transform="translate(-50 -50)">
    <g id="Symbol" transform="translate(37.763 36.618)">
      <g id="Group_1" data-name="Group 1">
        <path id="Path_1" data-name="Path 1" d="M15.143,58.469a1.847,1.847,0,0,1-.44-.734,3.74,3.74,0,0,1-.172-1.2,12.567,12.567,0,0,1,1.076-4.447,46.512,46.512,0,0,1,5.525-9.461A93.237,93.237,0,0,1,30.558,31.7,86.4,86.4,0,0,1,44.9,19.954a38.568,38.568,0,0,1,6.052-3.2A12.563,12.563,0,0,1,55.4,15.676a3.742,3.742,0,0,1,1.2.172,1.858,1.858,0,0,1,.733.439,1.147,1.147,0,1,0,1.623-1.622,4.151,4.151,0,0,0-1.617-.989,6,6,0,0,0-1.941-.294,14.715,14.715,0,0,0-5.306,1.243,48.7,48.7,0,0,0-9.954,5.8,95.6,95.6,0,0,0-11.2,9.658,88.634,88.634,0,0,0-12.064,14.73,40.846,40.846,0,0,0-3.392,6.421,14.694,14.694,0,0,0-1.243,5.3,6,6,0,0,0,.294,1.941,4.149,4.149,0,0,0,.989,1.616,1.147,1.147,0,1,0,1.623-1.622" fill="#2d3666"/>
      </g>
      <g id="Group_2" data-name="Group 2">
        <path id="Path_2" data-name="Path 2" d="M36.237,16.823A20.555,20.555,0,1,1,15.679,37.378,20.557,20.557,0,0,1,36.237,16.823" fill="#78d5dd"/>
      </g>
      <g id="Group_3" data-name="Group 3">
        <path id="Path_3" data-name="Path 3" d="M36.729,17.318a20.518,20.518,0,0,0-16.683,8.547c1.029.11,2.768.45,3.536,1.5a2.458,2.458,0,0,1,.5.508,2.121,2.121,0,0,1,.84,1.237,5.891,5.891,0,0,0,.168.608l0,0a3.868,3.868,0,0,0,.3.7l.04.022a20.531,20.531,0,0,1,14.274-7.971A5.15,5.15,0,0,1,39.137,20a6.78,6.78,0,0,0-.046-2.409l.018-.133a20.811,20.811,0,0,0-2.38-.135" fill="#48bbc7"/>
      </g>
      <g id="Group_4" data-name="Group 4">
        <path id="Path_4" data-name="Path 4" d="M29.408,56.771a20.441,20.441,0,0,0,6.826,1.162h0a20.525,20.525,0,0,1-6.828-1.162m-8.514-5.71h0M56.8,37.379A20.566,20.566,0,0,1,42.33,57.015,20.558,20.558,0,0,0,56.8,37.381v0m0-.054v0m0-.049v0" fill="#9ae0e6"/>
      </g>
      <g id="Group_5" data-name="Group 5">
        <path id="Path_5" data-name="Path 5" d="M51.157,25.288a20.574,20.574,0,0,1-24.42,28.588,13.412,13.412,0,0,0,2.487,2.83h0l.184.066A20.558,20.558,0,0,0,56.8,37.379v-.1a20.485,20.485,0,0,0-3.109-10.77q-.275-.373-.566-.733l-.038-.024a10.1,10.1,0,0,0-1.925-.461" fill="#a8eff3"/>
      </g>
      <g id="Group_6" data-name="Group 6">
        <path id="Path_6" data-name="Path 6" d="M17.063,61.382a4.792,4.792,0,0,1-3.543-1.291,1.147,1.147,0,0,1,1.623-1.622c.928.928,3.171.79,6.155-.375a1.147,1.147,0,1,1,.835,2.137A14.338,14.338,0,0,1,17.063,61.382Z" fill="#2d3666"/>
      </g>
      <g id="Group_7" data-name="Group 7">
        <path id="Path_7" data-name="Path 7" d="M50.663,36.085a1.147,1.147,0,0,1-.9-1.853C57.1,24.82,59.126,18.08,57.333,16.287a1.147,1.147,0,1,1,1.622-1.623c3.159,3.157.4,11-7.387,20.979A1.147,1.147,0,0,1,50.663,36.085Z" fill="#2d3666"/>
      </g>
      <g id="Group_8" data-name="Group 8">
        <path id="Path_8" data-name="Path 8" d="M38.509,49.585a1.148,1.148,0,0,1-.319-2.25l10.4-3.013a1.147,1.147,0,1,1,.639,2.2l-10.4,3.013A1.146,1.146,0,0,1,38.509,49.585Z" fill="#2d3666"/>
      </g>
      <g id="Group_9" data-name="Group 9">
        <path id="Path_9" data-name="Path 9" d="M38.51,49.585a1.147,1.147,0,0,1-1.132-1.343l1.847-10.664a1.147,1.147,0,0,1,2.261.391L39.64,48.633A1.148,1.148,0,0,1,38.51,49.585Z" fill="#2d3666"/>
      </g>
      <g id="Group_10" data-name="Group 10">
        <path id="Path_10" data-name="Path 10" d="M40.8,47.021a1.147,1.147,0,0,1-.854-1.912l6.122-6.839a1.147,1.147,0,0,1,1.71,1.53l-6.122,6.839A1.144,1.144,0,0,1,40.8,47.021Z" fill="#2d3666"/>
      </g>
      <g id="Group_11" data-name="Group 11">
        <ellipse id="Ellipse_1" data-name="Ellipse 1" cx="4.59" cy="4.589" rx="4.59" ry="4.589" transform="matrix(0.998, -0.055, 0.055, 0.998, 34.055, 43.682)" fill="#e8f3ff"/>
      </g>
      <g id="Group_12" data-name="Group 12">
        <path id="Path_11" data-name="Path 11" d="M39.166,17.03A20.549,20.549,0,0,1,53.227,25.8a13.013,13.013,0,0,0-5.993-.486A10,10,0,0,1,42.4,24.98,5.361,5.361,0,0,1,39.137,20a6.78,6.78,0,0,0-.046-2.409l.075-.556" fill="#ffdca1"/>
      </g>
      <g id="Group_13" data-name="Group 13">
        <path id="Path_12" data-name="Path 12" d="M51.056,23.129A20.559,20.559,0,0,1,53.227,25.8h0l.052.076.1.069.465.328-.069-.109c-.057-.069-.108-.143-.16-.212-.2-.258-.4-.517-.608-.763l-.092-.108c-.207-.247-.425-.493-.648-.728l-.046-.046c-.218-.241-.447-.47-.683-.694l-.069-.064-.017-.015c-.131-.135-.259-.272-.395-.4" fill="#ffe5b9"/>
      </g>
      <g id="Group_14" data-name="Group 14">
        <path id="Path_13" data-name="Path 13" d="M53.108,25.758l.012.015c.052.033.1.068.157.1l-.052-.076-.118-.042" fill="#78bfa0"/>
      </g>
      <g id="Group_15" data-name="Group 15">
        <path id="Path_14" data-name="Path 14" d="M53.082,25.749l.038.024-.012-.015-.026-.009" fill="#a8d6b0"/>
      </g>
      <g id="Group_16" data-name="Group 16">
        <path id="Path_15" data-name="Path 15" d="M39.661,17.524l-.075.556a6.78,6.78,0,0,1,.046,2.409A4.88,4.88,0,0,0,39.8,21.9c.135-.009.272-.007.408-.014a4.79,4.79,0,0,0,.1.525c.482-.034.97-.051,1.458-.051a20.613,20.613,0,0,1,2.931.206l.144.023c.132.017.27.04.4.063.6.1,1.194.23,1.779.384.293.08.585.161.872.253.172.052.338.108.511.166.459.155.918.328,1.365.517.235.1.47.206.7.315.212.1.419.2.625.3.24.12.482.252.717.384.091.046.178.1.264.149.166.1.327.189.482.293s.31.189.465.3l.054.033.026.009.118.042h0a20.559,20.559,0,0,0-2.171-2.671l-.03-.029-.069-.063c-.218-.212-.442-.419-.665-.614l-.143-.126c-.212-.184-.43-.361-.648-.539-.321-.252-.648-.5-.992-.74-.241-.166-.493-.333-.746-.5a20.52,20.52,0,0,0-3.006-1.577l-.379-.155a18.569,18.569,0,0,0-2.214-.74c-.155-.046-.316-.086-.476-.126-.138-.034-.27-.069-.407-.1-.161-.034-.327-.075-.493-.109L40.7,17.7c-.166-.034-.333-.063-.5-.092s-.338-.057-.5-.08l-.04-.006" fill="#ffc675"/>
      </g>
      <g id="Group_17" data-name="Group 17">
        <path id="Path_16" data-name="Path 16" d="M29.189,31.645c1.853.946,2.673,3.1-.889,8.174-4,5.69-4.779,11.9.924,16.887a20.56,20.56,0,0,1-9.982-30.894s4.176.017,4.676,2.294c.717,3.264,2.9,2.329,5.272,3.539" fill="#ffdca1"/>
      </g>
      <g id="Group_18" data-name="Group 18">
        <path id="Path_17" data-name="Path 17" d="M23.759,27.657a1.958,1.958,0,0,1,.158.449,3.1,3.1,0,0,0,1.48,2.305,3.81,3.81,0,0,1-.306-.692c-.06.075-.122.147-.18.223a4.51,4.51,0,0,1-.5-1.342,1.942,1.942,0,0,0-.329-.726,3.245,3.245,0,0,0-.324-.217" fill="#78bfa0"/>
      </g>
      <g id="Group_19" data-name="Group 19">
        <path id="Path_18" data-name="Path 18" d="M23.582,27.366a2.024,2.024,0,0,1,.177.291,3.245,3.245,0,0,1,.324.217,1.942,1.942,0,0,1,.329.726,4.51,4.51,0,0,0,.5,1.342c.058-.076.12-.148.18-.223a5.891,5.891,0,0,1-.168-.608,2.121,2.121,0,0,0-.84-1.237,2.458,2.458,0,0,0-.5-.508" fill="#48a890"/>
      </g>
      <g id="Group_20" data-name="Group 20">
        <path id="Path_19" data-name="Path 19" d="M21.914,52.126l.048.049c.133.136.274.266.411.4l.1.111c.264.27.534.533.815.792A20.613,20.613,0,0,0,25.141,55h.006c-.142-.193-.278-.385-.408-.582a20.658,20.658,0,0,1-2.824-2.3" fill="#ffe5b9"/>
      </g>
      <g id="Group_21" data-name="Group 21">
        <path id="Path_20" data-name="Path 20" d="M19.736,26.306l-.052.075c-.115.172-.229.344-.344.522-.138.218-.27.442-.4.671-.126.212-.247.436-.367.654-.235.442-.453.895-.66,1.354-.1.235-.2.465-.293.7a20.623,20.623,0,0,0-1.1,3.8c-.04.212-.08.424-.109.642q-.06.387-.1.774-.095.774-.12,1.566v.017q-.017.4-.017.792v.006c0,.229.006.465.017.694,0,.149.006.3.017.442,0,.069.006.143.011.212.011.172.023.338.04.5l.011.132c.023.264.052.522.092.78q.026.25.069.5c.04.27.092.533.143.8.04.218.092.436.143.654.115.5.252.992.407,1.48.04.132.08.258.126.384.029.086.057.172.092.264q.069.215.155.43c.075.2.149.384.224.574.1.241.207.482.316.717.1.218.2.424.3.637.224.447.465.883.723,1.314.069.115.138.229.212.344.092.155.189.3.287.459s.224.333.344.5c.212.3.43.6.66.889.12.149.235.3.361.442q.469.568.985,1.1a20.658,20.658,0,0,0,2.824,2.3l-.006-.009-.046-.069c-.252-.372-.488-.751-.717-1.141-.063-.1-.12-.213-.178-.322-.115-.194-.218-.4-.322-.591-.108-.218-.217-.436-.315-.653-.229-.488-.442-.981-.631-1.491-.08-.206-.155-.414-.224-.625q-.077-.215-.137-.43c-.063-.184-.12-.373-.172-.562-.143-.511-.27-1.027-.373-1.549-.051-.263-.1-.527-.143-.8s-.08-.533-.115-.8c-.057-.516-.1-1.038-.12-1.566-.018-.3-.023-.6-.023-.895v-.006c0-.263.005-.533.017-.8.006-.24.023-.476.04-.716l.006-.092c.017-.258.045-.51.075-.769.023-.206.052-.419.08-.625a1.351,1.351,0,0,1,.023-.149c.034-.229.075-.459.115-.683.011-.063.023-.126.04-.189.04-.212.086-.43.138-.642v-.023c.057-.236.115-.47.184-.706.046-.184.1-.361.155-.545.034-.132.075-.259.12-.39.045-.155.1-.3.155-.453a3.377,3.377,0,0,1,.12-.338c.126-.338.259-.671.4-1,.057-.138.115-.275.184-.407l.011-.029q.25-.55.534-1.084c.109-.206.224-.407.338-.609l.028-.046c.121-.206.241-.407.367-.607.035-.052.069-.109.1-.161.109-.166.218-.333.333-.5.207-.3.418-.6.643-.894l-.025-.042a3.1,3.1,0,0,1-1.48-2.305,1.958,1.958,0,0,0-.158-.449,2.024,2.024,0,0,0-.177-.291,7.6,7.6,0,0,0-3.846-1.06" fill="#ffc675"/>
      </g>
      <g id="Group_22" data-name="Group 22">
        <path id="Path_21" data-name="Path 21" d="M36.234,59.08a21.547,21.547,0,0,1-7.4-1.3,21.712,21.712,0,0,1-14.3-20.4,21.7,21.7,0,0,1,21.7-21.7,21.666,21.666,0,0,1,17.941,9.478c.138.2.275.414.411.629l.069.109A21.7,21.7,0,0,1,36.234,59.08Zm0-41.109a19.4,19.4,0,1,0,16.478,9.142l-.066-.106c-.117-.184-.233-.371-.358-.548a19.366,19.366,0,0,0-16.054-8.489Z" fill="#2d3666"/>
      </g>
      <g id="Group_23" data-name="Group 23">
        <path id="Path_22" data-name="Path 22" d="M53.227,26.947a1.139,1.139,0,0,1-.391-.069,12.132,12.132,0,0,0-5.567-.415,10.923,10.923,0,0,1-5.3-.419,6.483,6.483,0,0,1-3.981-6.079c0-.249.027-.506.049-.763a3.26,3.26,0,0,0-.03-1.233,1.147,1.147,0,1,1,2.163-.765,5.007,5.007,0,0,1,.153,2.2c-.018.207-.037.414-.041.619a4.207,4.207,0,0,0,2.547,3.9,8.925,8.925,0,0,0,4.232.26,14.2,14.2,0,0,1,6.554.545,1.147,1.147,0,0,1-.391,2.226Z" fill="#2d3666"/>
      </g>
      <g id="Group_24" data-name="Group 24">
        <path id="Path_23" data-name="Path 23" d="M29.223,57.853a1.145,1.145,0,0,1-.754-.283c-5.61-4.9-6-11.443-1.107-18.409,2.3-3.269,2.373-4.831,2.214-5.473a1.525,1.525,0,0,0-.908-1.02,7.884,7.884,0,0,0-1.89-.61,4.539,4.539,0,0,1-3.35-2.028,5.628,5.628,0,0,1-.629-1.67c-.225-1.029-2.54-1.391-3.563-1.4a1.147,1.147,0,0,1,.007-2.294h.005c.521,0,5.115.11,5.791,3.2a3.464,3.464,0,0,0,.361,1c.344.586.828.719,1.891.962a9.831,9.831,0,0,1,2.422.8A3.844,3.844,0,0,1,31.8,33.136c.455,1.837-.383,4.239-2.564,7.342-2.923,4.159-5.167,10.2.739,15.364a1.147,1.147,0,0,1-.756,2.011Z" fill="#2d3666"/>
      </g>
      <g id="Group_25" data-name="Group 25">
        <path id="Path_24" data-name="Path 24" d="M43.1,46.174a4.59,4.59,0,0,0-6.058,6.034,4.588,4.588,0,1,1,4.911-7.617A4.648,4.648,0,0,1,43.1,46.174Z" fill="#b8daf2"/>
      </g>
      <g id="Group_26" data-name="Group 26">
        <path id="Path_25" data-name="Path 25" d="M38.888,53.743a5.732,5.732,0,1,1,4.278-1.908A5.716,5.716,0,0,1,38.888,53.743Zm.008-9.175c-.065,0-.13,0-.2.006a3.421,3.421,0,1,0,.2-.006Z" fill="#2d3666"/>
      </g>
    </g>
    <text id="MISOCIAL" transform="translate(113.511 84.399)" fill="#fff" font-size="30" font-family="SegoeUI, Segoe UI" letter-spacing="0.2em"><tspan x="0" y="0">MISOCIAL</tspan></text>
  </g>
</svg>
